<?xml version="1.0" standalone="no"?>
<!DOCTYPE svg PUBLIC "-//W3C//DTD SVG 20010904//EN"
 "http://www.w3.org/TR/2001/REC-SVG-20010904/DTD/svg10.dtd">
<svg version="1.0" xmlns="http://www.w3.org/2000/svg"
 width="1080.000000pt" height="1080.000000pt" viewBox="0 0 1080.000000 1080.000000"
 preserveAspectRatio="xMidYMid meet">
<metadata>
Created by potrace 1.14, written by Peter Selinger 2001-2017
</metadata>
<g transform="translate(0.000000,1080.000000) scale(0.100000,-0.100000)"
fill="#000000" stroke="none">
<path d="M5241 8515 c-79 -47 -145 -85 -147 -85 -1 0 -51 -29 -111 -63 -169
-99 -762 -442 -818 -472 -27 -15 -57 -34 -66 -41 -8 -8 -18 -14 -21 -14 -6 0
-378 -213 -498 -284 -30 -19 -75 -45 -100 -58 -63 -35 -240 -138 -270 -157
-14 -8 -27 -16 -30 -16 -3 0 -16 -8 -30 -17 -22 -14 -227 -133 -320 -186 -19
-11 -75 -43 -123 -71 -49 -28 -93 -51 -98 -51 -17 0 -9 -18 15 -34 23 -15 69
-41 126 -73 14 -8 39 -23 55 -33 17 -10 51 -30 76 -44 26 -14 127 -72 225
-129 99 -57 235 -136 304 -176 69 -40 132 -76 140 -81 48 -29 172 -100 176
-100 3 0 58 -33 129 -77 11 -7 34 -19 50 -28 17 -8 44 -23 60 -33 29 -18 514
-299 602 -348 68 -39 337 -193 353 -203 96 -59 476 -274 485 -274 6 0 87 44
180 98 94 54 184 106 200 115 17 9 89 51 160 92 72 42 146 85 165 96 19 10
117 67 218 126 101 58 186 106 189 106 4 0 14 6 22 14 9 7 41 27 73 44 31 17
94 53 140 80 45 27 173 101 283 164 110 64 216 125 235 136 19 12 46 27 61 35
27 15 448 257 594 342 50 29 134 78 188 110 55 31 95 61 90 65 -7 7 -454 267
-728 423 -102 58 -168 96 -185 107 -58 38 -433 250 -441 250 -5 0 -9 5 -9 10
0 6 -4 10 -9 10 -5 0 -49 23 -98 51 -48 29 -108 63 -133 77 -25 14 -78 45
-118 69 -41 24 -75 43 -77 43 -2 0 -33 19 -71 41 -37 23 -88 53 -113 67 -25
14 -59 33 -76 43 -16 10 -43 26 -60 35 -16 9 -173 99 -348 200 -175 101 -326
184 -335 184 -9 -1 -82 -39 -161 -85z"/>
<path d="M2600 5178 l0 -1623 21 -14 c12 -7 36 -21 53 -31 17 -9 168 -97 336
-195 168 -97 323 -187 345 -200 22 -12 102 -59 179 -104 76 -44 140 -81 143
-81 2 0 24 -13 48 -30 24 -16 46 -30 49 -30 3 0 29 -14 58 -31 50 -30 67 -40
151 -88 42 -24 497 -288 612 -356 50 -29 113 -65 140 -80 28 -16 57 -34 65
-41 8 -7 20 -13 25 -14 6 -1 28 -13 50 -25 45 -27 135 -51 180 -50 44 2 126
26 149 44 46 37 97 97 119 140 29 54 67 173 67 207 0 13 3 24 8 24 4 0 7 -92
7 -205 -1 -113 3 -205 7 -205 4 0 62 32 130 71 67 40 136 80 153 89 16 10 57
33 90 53 33 19 79 45 101 58 45 26 300 174 392 227 31 19 82 48 112 64 30 17
67 39 82 49 14 11 29 19 33 19 3 0 31 16 61 35 30 19 56 35 59 35 3 0 53 29
112 63 160 95 411 240 648 375 290 165 392 233 483 322 78 76 192 217 192 238
0 5 4 12 8 14 24 9 111 232 126 319 3 19 8 48 12 64 21 112 7 320 -30 421 -51
141 -143 221 -263 228 -57 3 -128 -11 -173 -34 -14 -7 -5 5 20 26 115 99 177
176 258 318 78 136 155 348 176 486 3 19 8 46 11 60 4 14 8 88 9 165 5 231
-46 408 -146 507 -65 65 -122 89 -213 89 -93 0 -134 -21 -815 -421 -79 -47
-424 -246 -465 -270 -16 -9 -73 -42 -125 -72 -52 -30 -147 -85 -210 -122 -63
-36 -122 -70 -130 -75 -50 -32 -175 -101 -182 -101 -4 0 -8 -4 -8 -10 0 -5 -4
-10 -9 -10 -8 0 -487 -274 -500 -286 -3 -2 -5 -150 -5 -329 0 -179 -3 -325 -7
-325 -4 0 -10 28 -14 63 -4 34 -8 69 -10 77 -6 32 -46 176 -54 195 -5 11 -21
51 -35 88 -24 63 -48 110 -105 212 -40 70 -132 184 -192 238 -50 44 -198 139
-329 209 -19 11 -44 25 -55 31 -30 18 -175 102 -215 125 -19 11 -116 66 -215
124 -99 57 -189 109 -200 116 -242 140 -363 209 -375 215 -8 4 -28 15 -45 26
-16 10 -47 28 -67 40 -50 28 -81 45 -228 131 -69 40 -145 84 -170 98 -35 20
-450 260 -482 279 -5 2 -8 -726 -8 -1619z m1045 112 c50 -29 110 -64 135 -78
25 -14 151 -87 281 -163 130 -75 249 -144 265 -152 81 -42 134 -131 142 -238
5 -72 -12 -120 -49 -140 -26 -14 -55 -3 -169 66 -47 28 -143 85 -215 126 -71
40 -137 79 -146 84 -9 6 -38 22 -65 38 -27 15 -62 35 -79 45 -16 9 -72 41
-122 70 -88 51 -93 55 -94 88 0 19 -1 90 -1 159 0 174 0 169 15 157 6 -6 53
-34 102 -62z m3582 10 c44 -16 63 -84 49 -172 -8 -53 -34 -110 -68 -150 -13
-15 -149 -100 -303 -189 -362 -210 -357 -208 -375 -216 -8 -4 -54 -30 -102
-59 -49 -29 -88 -49 -89 -46 -1 10 -1 314 0 332 1 13 96 75 206 136 11 6 133
76 270 156 207 121 376 217 381 218 1 0 15 -5 31 -10z m-1817 -795 c0 -8 -2
-15 -4 -15 -2 0 -6 7 -10 15 -3 8 -1 15 4 15 6 0 10 -7 10 -15z m-1689 -341
c89 -52 162 -94 164 -94 2 0 33 -18 69 -40 36 -22 70 -40 76 -40 5 0 10 -4 10
-8 0 -4 12 -13 28 -20 15 -7 36 -18 47 -25 11 -7 40 -24 64 -37 24 -14 51 -29
60 -35 10 -5 46 -27 82 -48 70 -41 103 -82 130 -160 42 -122 1 -244 -74 -221
-12 3 -148 80 -302 169 -154 90 -296 172 -315 182 -19 11 -70 41 -113 67 -43
25 -82 46 -87 46 -28 0 -34 37 -34 201 -1 157 0 168 17 163 9 -3 90 -48 178
-100z m1684 -588 c0 -371 -3 -677 -6 -681 -4 -3 -6 2 -6 12 1 16 -10 100 -18
143 -12 62 -65 232 -76 245 -5 5 -9 15 -9 23 0 23 -99 212 -148 282 -25 36
-86 105 -136 154 -50 50 -86 87 -80 83 21 -12 80 -21 134 -21 100 2 183 55
249 159 35 55 79 183 83 239 1 20 5 36 8 36 3 0 6 -303 5 -674z m1846 625 c28
-28 34 -50 31 -121 -3 -68 -45 -164 -88 -201 -11 -9 -109 -68 -219 -131 -110
-64 -222 -129 -250 -145 -27 -16 -57 -32 -65 -36 -8 -4 -28 -15 -45 -26 -16
-10 -85 -50 -152 -89 l-123 -71 0 177 c0 158 2 178 18 188 9 6 37 22 62 36 25
14 209 120 410 237 201 116 371 211 378 211 8 0 27 -13 43 -29z"/>
</g>
</svg>
